<svg width="197" height="30" viewBox="0 0 197 30" fill="none" xmlns="http://www.w3.org/2000/svg">
<path d="M15.6668 16.5468C15.6668 20.0367 12.9073 22.68 7.8334 22.68C4.75186 22.68 1.73009 21.624 3.8147e-05 19.8043V1.70023H7.71718C11.9145 1.70023 14.6407 3.51992 14.6407 7.30544C14.6407 9.12515 13.701 10.6228 12.1768 11.5293C14.4946 12.3229 15.6701 14.3153 15.6701 16.5468H15.6668ZM3.84201 12.2333C6.36569 10.3272 10.6194 10.6493 10.6194 7.47812C10.6194 6.27605 9.85567 5.36619 8.27173 5.36619H3.84201V12.2333ZM11.6754 16.4571C11.6754 14.8732 10.2674 13.5814 7.83008 13.5814C5.24663 13.5814 3.83869 14.7536 3.83869 16.4571C3.83869 18.1606 5.21675 19.3328 7.83008 19.3328C10.2641 19.3328 11.6754 17.9846 11.6754 16.4571Z" fill="#EA0000"/>
<path d="M33.6248 6.39223V22.2383H29.9555V18.9807C28.7235 21.2985 26.6415 22.6766 24.3801 22.6766C21.1824 22.6766 18.2768 20.475 18.2768 16.1316V6.38891H21.9727V15.4841C21.9727 18.0377 23.7326 19.3859 25.6685 19.3859C27.8402 19.3859 29.9521 17.6259 29.9521 14.5145V6.38559H33.6214L33.6248 6.39223Z" fill="#EA0000"/>
<path d="M47.7972 6.39224V9.88555H43.3077C41.312 9.88555 40.6977 10.7057 40.6977 12.4956V22.2383H37.0018V11.3234C37.0018 8.38794 38.9975 6.39224 41.9329 6.39224H47.8005H47.7972Z" fill="#EA0000"/>
<path d="M64.7855 23.882C63.0854 27.1097 60.5318 29.4873 55.8364 29.4873C52.5225 29.4873 48.9129 27.6676 48.9129 23.9119C48.9129 21.5642 50.4105 19.8906 52.6088 19.2763C50.6131 17.9846 49.3513 15.7266 49.3513 13.173C49.3513 9.18161 52.4328 5.92408 56.6002 5.92408C60.7676 5.92408 63.8491 9.18161 63.8491 13.173C63.8491 17.1644 60.7377 20.4219 56.6002 20.4219C54.9565 20.4219 52.0808 20.6843 52.0808 22.9157C52.0808 24.8517 53.9304 25.9973 56.1884 26.0272C58.7984 26.0571 61.0598 24.3536 62.3216 22.3014L64.7855 23.8854V23.882ZM52.9608 13.1697C52.9608 15.1056 54.2226 16.9253 56.6002 16.9253C58.9778 16.9253 60.2097 15.1056 60.2097 13.1697C60.2097 11.2338 58.9479 9.41405 56.6002 9.41405C54.2525 9.41405 52.9608 11.2338 52.9608 13.1697ZM60.5916 4.66223C60.3558 3.48673 61.1196 2.4042 62.2652 2.16844C63.4108 1.96256 64.5232 2.69642 64.759 3.84204C64.9649 4.98765 64.231 6.10007 63.0588 6.33583C61.9132 6.54171 60.8008 5.80785 60.5949 4.66223H60.5916Z" fill="#EA0000"/>
<path d="M81.9532 12.4956V22.2383H78.2872V13.1431C78.2872 10.5895 76.4974 9.24135 74.5615 9.24135C72.4197 9.24135 70.3078 11.0013 70.3078 14.1127V22.2416H66.6119V3.05176e-05H70.3078V9.6531C71.5098 7.3353 73.5952 5.92736 75.8532 5.92736C79.051 5.92736 81.9565 8.12894 81.9565 12.4989L81.9532 12.4956Z" fill="#EA0000"/>
<path d="M100.645 18.569V22.2383H85.4465V1.70023H100.353V5.36619H89.2918V12.8775C90.816 10.822 93.1072 9.85569 95.1593 9.82581H98.7689V13.3457H95.7172C92.7818 13.3457 89.2918 14.6374 89.2918 18.569H100.648H100.645Z" fill="#EA0000"/>
<path d="M117.869 22.2383H113.41L109.86 17.1312L106.572 22.2383H102.113L107.628 13.9035L102.405 6.39224H106.865L110.122 11.0577L113.114 6.39224H117.544L112.35 14.2854L117.866 22.2383H117.869Z" fill="#EA0000"/>
<path d="M129.372 22.6766C126.732 22.6766 124.736 21.2089 123.71 19.3593V28.7501H120.014V6.36239H123.71V9.23805C124.736 7.38846 126.732 5.92075 129.372 5.92075C139.347 5.92075 139.347 22.6766 129.372 22.6766ZM128.432 9.26794C125.204 9.26794 123.707 11.8514 123.707 14.3153C123.707 16.7792 125.204 19.3328 128.432 19.3328C134.476 19.3328 134.476 9.26794 128.432 9.26794Z" fill="#EA0000"/>
<path d="M150.352 6.39224V9.88555H145.862C143.866 9.88555 143.252 10.7057 143.252 12.4956V22.2383H139.556V11.3234C139.556 8.38794 141.552 6.39224 144.487 6.39224H150.355H150.352Z" fill="#EA0000"/>
<path d="M166.048 16.7228C166.048 20.6544 163.584 22.68 159.271 22.68C154.519 22.68 151.613 19.1302 151.613 14.3186C151.613 8.62708 155.515 6.18973 159.095 5.9274C163.348 5.63519 165.756 7.77699 165.756 10.7091C165.756 12.4392 165.288 13.8205 162.94 14.8466L156.309 17.6625C156.983 18.6886 157.982 19.2465 159.125 19.2465C160.855 19.2465 162.206 18.5126 162.206 16.7228H166.051H166.048ZM155.485 14.9894L160.944 12.6417C161.562 12.3794 162.06 12.0839 162.06 11.3201C162.06 10.0583 160.828 9.23807 159.42 9.23807C157.571 9.23807 155.459 10.646 155.459 14.3153C155.459 14.5511 155.459 14.757 155.489 14.9894H155.485Z" fill="#EA0000"/>
<path d="M181.074 17.6326C181.074 21.1226 178.58 22.68 174.708 22.68C171.391 22.68 168.459 20.5979 168.459 17.1943H171.892C171.892 18.8679 173.566 19.5719 175.09 19.5719C176.412 19.5719 177.614 19.0439 177.614 18.1639C177.614 15.1421 168.605 17.3703 168.605 11.0345C168.605 7.57111 171.391 5.9274 174.622 5.9274C178.73 5.9274 180.755 7.9231 180.755 11.2969H177.468C177.468 9.85903 175.914 9.18494 174.446 9.18494C173.154 9.18494 171.922 9.71292 171.922 10.7689C171.922 13.9965 181.077 11.3267 181.077 17.6359L181.074 17.6326Z" fill="#EA0000"/>
<path d="M196.097 17.6326C196.097 21.1226 193.603 22.68 189.731 22.68C186.414 22.68 183.481 20.5979 183.481 17.1943H186.915C186.915 18.8679 188.589 19.5719 190.113 19.5719C191.434 19.5719 192.636 19.0439 192.636 18.1639C192.636 15.1421 183.628 17.3703 183.628 11.0345C183.628 7.57111 186.414 5.9274 189.645 5.9274C193.752 5.9274 195.778 7.9231 195.778 11.2969H192.49C192.49 9.85903 190.936 9.18494 189.469 9.18494C188.177 9.18494 186.945 9.71292 186.945 10.7689C186.945 13.9965 196.1 11.3267 196.1 17.6359L196.097 17.6326Z" fill="#EA0000"/>
</svg>
