<svg width="10" height="10" viewBox="0 0 10 10" fill="none" xmlns="http://www.w3.org/2000/svg">
<path d="M9.16665 4.20833C9.20831 3.99999 9.04165 3.74999 8.83331 3.74999L6.45831 3.41666L5.37498 1.24999C5.33331 1.16666 5.29165 1.12499 5.20831 1.08333C4.99998 0.958328 4.74998 1.04166 4.62498 1.24999L3.58331 3.41666L1.20831 3.74999C1.08331 3.74999 0.99998 3.79166 0.958313 3.87499C0.791646 4.04166 0.791646 4.29166 0.958313 4.45833L2.66665 6.12499L2.24998 8.49999C2.24998 8.58333 2.24998 8.66666 2.29165 8.74999C2.41665 8.95833 2.66665 9.04166 2.87498 8.91666L4.99998 7.79166L7.12498 8.91666C7.16665 8.95833 7.24998 8.95833 7.33331 8.95833C7.37498 8.95833 7.37498 8.95833 7.41665 8.95833C7.62498 8.91666 7.79165 8.70833 7.74998 8.45833L7.33331 6.08333L9.04165 4.41666C9.12498 4.37499 9.16665 4.29166 9.16665 4.20833Z" fill="black"/>
</svg>
