<svg width="10" height="10" viewBox="0 0 10 10" fill="none" xmlns="http://www.w3.org/2000/svg">
<g clip-path="url(#clip0_256_1274)">
<path d="M6.29094 5.26409L5.41671 4.75953V2.91668C5.41671 2.80617 5.37281 2.70019 5.29467 2.62205C5.21653 2.54391 5.11055 2.50001 5.00004 2.50001C4.88954 2.50001 4.78356 2.54391 4.70542 2.62205C4.62728 2.70019 4.58338 2.80617 4.58338 2.91668V5.00001C4.58336 5.07316 4.6026 5.14504 4.63917 5.20839C4.67574 5.27175 4.72835 5.32436 4.79171 5.36093L5.87427 5.98593C5.92167 6.01332 5.974 6.03111 6.02827 6.03827C6.08254 6.04543 6.1377 6.04183 6.19058 6.02767C6.24346 6.01351 6.29303 5.98907 6.33647 5.95574C6.3799 5.92242 6.41634 5.88086 6.44371 5.83345C6.47108 5.78604 6.48883 5.7337 6.49597 5.67942C6.5031 5.62514 6.49947 5.56999 6.48528 5.51712C6.4711 5.46424 6.44663 5.41468 6.41328 5.37127C6.37994 5.32785 6.33836 5.29143 6.29094 5.26409ZM5.00004 0.833344C4.17595 0.833344 3.37037 1.07771 2.68517 1.53555C1.99996 1.99339 1.46591 2.64414 1.15054 3.4055C0.835179 4.16685 0.752665 5.00463 0.913437 5.81289C1.07421 6.62114 1.47105 7.36357 2.05376 7.94629C2.63648 8.52901 3.37891 8.92584 4.18717 9.08662C4.99542 9.24739 5.8332 9.16487 6.59456 8.84951C7.35592 8.53414 8.00666 8.00009 8.4645 7.31489C8.92234 6.62968 9.16671 5.8241 9.16671 5.00001C9.16548 3.89532 8.7261 2.83622 7.94496 2.05509C7.16383 1.27395 6.10473 0.834572 5.00004 0.833344ZM5.00004 8.33334C4.34077 8.33334 3.69631 8.13785 3.14814 7.77158C2.59998 7.4053 2.17274 6.88471 1.92044 6.27562C1.66815 5.66653 1.60214 4.99631 1.73076 4.34971C1.85938 3.70311 2.17685 3.10916 2.64302 2.64299C3.1092 2.17681 3.70314 1.85934 4.34974 1.73073C4.99635 1.60211 5.66657 1.66812 6.27565 1.92041C6.88474 2.1727 7.40534 2.59995 7.77161 3.14811C8.13788 3.69627 8.33338 4.34074 8.33338 5.00001C8.33237 5.88376 7.98085 6.73101 7.35595 7.35592C6.73105 7.98082 5.88379 8.33233 5.00004 8.33334Z" fill="black"/>
</g>
<defs>
<clipPath id="clip0_256_1274">
<rect width="10" height="10" fill="white"/>
</clipPath>
</defs>
</svg>
